# xmcd
#
# Track frame offsets:
#	150
#	15300
#	29466
#	48292
#	60667
#	74017
#	90817
#	105442
#	118057
#	132082
#	146587
#	159768
#
# Disc length: 2323 seconds
#
# Revision: 0
# Processed by: cddbd v1.5.2PL0 Copyright (c) Steve Scherf et al.
# Submitted via: EasyCDDAExtractor 16.1.0.1
#
DISCID=9109110c
DTITLE=bert denver - moments in time
DYEAR=2010
DGENRE=country
TTITLE0=feels so right
TTITLE1=jacksom (with audrey lee)
TTITLE2=winter in america
TTITLE3=have you ever seen the rain
TTITLE4=aniie's song
TTITLE5=if tomorrow never comes
TTITLE6=let your love flow
TTITLE7=in the ghetto
TTITLE8=green green grass of home
TTITLE9=release me
TTITLE10=san francisco
TTITLE11=just an illusion
EXTD=
EXTT0=
EXTT1=
EXTT2=
EXTT3=
EXTT4=
EXTT5=
EXTT6=
EXTT7=
EXTT8=
EXTT9=
EXTT10=
EXTT11=
PLAYORDER=
